<?xml version="1.0"?><svg width="640" height="480" xmlns="http://www.w3.org/2000/svg">
 <title>baseball field</title>
 <g>
  <title>Layer 1</title>
  <path transform="rotate(-45.080101013183594 296.63528442382824,208.0935211181641) " d="m398.686035,111.515984c-93.384094,-93.517365 -221.302353,-37.600723 -221.302353,-37.600723l-2.119919,229.906517c-13.191772,3.172729 -22.378815,15.79834 -21.013367,29.864716c1.491577,15.336517 14.955505,26.543915 30.071747,25.032837c12.16777,-1.217346 21.686264,-10.313812 24.159851,-21.812439l225.58667,-0.296173c0,-0.002472 52.856323,-136.725571 -35.382629,-225.094734zm-55.557495,188.339882c0,0 -7.373901,1.214844 -14.426147,7.856537c-6.824646,6.430756 -8.489502,15.973999 -8.489502,15.973999l-111.866928,0.813263c-2.424149,-10.406738 -10.485672,-18.343536 -20.479095,-20.71051l2.246033,-115.93219c0,0 11.78186,-2.402145 16.03154,-8.107513c4.252151,-5.70787 6.96077,-14.919815 6.96077,-14.919815l110.9319,-0.130524c0,0 -0.92511,6.998032 6.208801,14.415314c7.121582,7.414688 13.115173,7.22139 13.115173,7.22139l-0.232544,113.52005z" fill="#007f00" id="svg_2"/>
  <g id="svg_3"/>
 </g>
</svg>